<svg xmlns="http://www.w3.org/2000/svg" xmlns:xlink="http://www.w3.org/1999/xlink" width="2040" zoomAndPan="magnify" viewBox="0 0 1530 1529.999932" height="2040" preserveAspectRatio="xMidYMid meet" version="1.0"><defs><clipPath id="cc2d02a68f"><path d="M 4 404.492188 L 1530 404.492188 L 1530 1125 L 4 1125 Z M 4 404.492188 " clip-rule="nonzero"/></clipPath></defs><g clip-path="url(#cc2d02a68f)"><path fill="#000000" d="M 946.8125 764.652344 C 962.238281 755.59375 977.371094 746.003906 993.144531 737.597656 C 1020.054688 723.261719 1046.859375 708.496094 1074.75 696.296875 C 1087.136719 690.875 1102.574219 687.8125 1115.726562 689.742188 C 1143.597656 693.832031 1155.078125 707.863281 1148.558594 737.644531 C 1146.230469 748.308594 1139.800781 751.988281 1130.25 751.707031 C 1120.871094 751.4375 1113.445312 747.777344 1111.929688 737.179688 C 1110.507812 727.183594 1109.140625 717.171875 1107.355469 704.417969 C 1099.511719 706.800781 1092.832031 707.933594 1086.980469 710.757812 C 1064.433594 721.679688 1042.113281 733.078125 1019.769531 744.421875 C 1002.3125 753.289062 985.167969 762.800781 967.457031 771.117188 C 959.050781 775.058594 949.816406 778.109375 940.664062 779.386719 C 919.644531 782.324219 911.902344 772.234375 921.179688 753.582031 C 926.695312 742.488281 933.746094 731.621094 942.179688 722.582031 C 967.820312 695.109375 994.207031 668.3125 1020.789062 641.742188 C 1072.296875 590.226562 1124.542969 539.4375 1175.578125 487.449219 C 1189.738281 473.019531 1201.277344 455.871094 1212.871094 439.175781 C 1217.855469 432 1219.914062 422.804688 1224.230469 412.277344 C 1215.347656 412.277344 1209.855469 411.078125 1205.164062 412.515625 C 1193.964844 415.960938 1182.6875 419.722656 1172.269531 424.988281 C 1060.929688 481.3125 969.164062 560.394531 899.765625 664.179688 C 864.425781 717.015625 843.925781 776.097656 835.878906 839.28125 C 835.214844 844.5 835.347656 849.820312 835 857.289062 C 842.71875 856.238281 848.605469 855.652344 854.425781 854.625 C 888.339844 848.601562 922.140625 841.890625 956.15625 836.570312 C 985.269531 832.03125 1013.929688 834.300781 1041.039062 848.375 C 1051.0625 841.789062 1060.5 834.785156 1070.695312 829.160156 C 1079.53125 824.28125 1088.898438 819.660156 1098.617188 817.242188 C 1118.6875 812.226562 1130.894531 819.660156 1141.167969 842.242188 C 1149.644531 837.214844 1157.9375 832.039062 1166.449219 827.273438 C 1201.683594 807.550781 1237.375 802.421875 1273.015625 825.816406 C 1284.226562 833.171875 1294.613281 832.558594 1306.082031 827.421875 C 1314.636719 823.589844 1323.613281 820.675781 1332.4375 817.457031 C 1358.496094 807.933594 1384.570312 808.292969 1410.789062 817.027344 C 1424.902344 821.726562 1439.132812 826.074219 1453.402344 830.277344 C 1469.429688 835 1485.195312 837.160156 1501.570312 829.984375 C 1510.949219 825.871094 1521.378906 825.75 1529.515625 835.65625 C 1524.261719 848.636719 1513.199219 852.207031 1501.398438 853.878906 C 1466.332031 858.824219 1432.148438 853.359375 1400.539062 838.773438 C 1381.734375 830.097656 1364.9375 829.453125 1346.496094 836.1875 C 1339.152344 838.875 1331.5 840.738281 1324.097656 843.28125 C 1298.726562 852.003906 1274.25 850.523438 1252.574219 834.199219 C 1237.824219 823.09375 1223.6875 823.261719 1209.097656 832.152344 C 1189.074219 844.355469 1169.703125 857.640625 1149.6875 869.875 C 1142.570312 874.222656 1134.613281 878.902344 1126.632812 879.78125 C 1113.265625 881.261719 1107.46875 873.996094 1107.714844 860.148438 C 1107.828125 854.035156 1107.738281 847.914062 1107.738281 839.914062 C 1087.882812 846.691406 1074.863281 860.203125 1060.589844 871.683594 C 1053.890625 877.070312 1047.300781 882.753906 1041.492188 889.066406 C 1031.910156 899.484375 1020.675781 898.558594 1009 894.785156 C 1000.085938 891.902344 996.582031 886.050781 1000.503906 876.597656 C 1003.078125 870.382812 1004.832031 863.832031 1008.253906 853.503906 C 946.371094 852.441406 891.664062 871.015625 834.875 883.285156 C 833.417969 895.429688 832.296875 906.171875 830.816406 916.871094 C 822.273438 978.484375 788.730469 1024.484375 737.855469 1057.203125 C 700.675781 1081.117188 658.859375 1095.25 614.222656 1098.59375 C 603.359375 1099.40625 592.242188 1099.171875 581.449219 1097.769531 C 547.035156 1093.328125 527.859375 1072.304688 528.976562 1037.410156 C 529.519531 1020.507812 535.078125 1003.753906 538.628906 986.992188 C 539.691406 981.976562 541.589844 977.152344 544.324219 968.304688 C 532.164062 971.964844 523.359375 974.304688 514.773438 977.253906 C 400.722656 1016.417969 286.910156 1056.308594 172.542969 1094.503906 C 137.023438 1106.367188 100.167969 1114.488281 63.554688 1122.601562 C 51.800781 1125.199219 38.433594 1124.035156 26.476562 1121.460938 C 7.003906 1117.269531 0.585938 1105.078125 7.90625 1086.304688 C 12.960938 1073.324219 19.707031 1060.355469 28.417969 1049.578125 C 53.496094 1018.53125 77.738281 986.300781 106.25 958.601562 C 278.929688 790.816406 465.625 640.871094 678.851562 527.089844 C 735.050781 497.09375 786.710938 460.605469 841.269531 428.445312 C 847.339844 424.875 853.410156 421.179688 859.828125 418.367188 C 867.78125 414.875 867.941406 415.25 883.050781 423.539062 C 841.292969 429.359375 814.261719 456.832031 779.589844 478.761719 C 787.464844 481.730469 792.089844 483.246094 796.507812 485.199219 C 801.1875 487.253906 805.683594 489.71875 810.394531 492.066406 C 805.761719 502.6875 797.46875 501.171875 791.570312 499.285156 C 768.1875 491.796875 750.09375 502.722656 733.84375 516.140625 C 709.691406 536.082031 686.433594 557.195312 663.921875 578.988281 C 605.78125 635.257812 554.121094 697.265625 505.359375 761.714844 C 499.898438 768.9375 495.445312 776.910156 490.519531 784.535156 C 491.558594 785.835938 492.585938 787.144531 493.628906 788.445312 C 501.84375 784.730469 509.980469 780.820312 518.285156 777.328125 C 561.558594 759.164062 604.625 740.445312 648.339844 723.375 C 661.945312 718.066406 677.226562 715.679688 691.90625 714.765625 C 718.835938 713.070312 725.320312 723.625 712.304688 746.757812 C 705.023438 759.683594 696.3125 771.851562 687.699219 783.972656 C 659.5625 823.566406 631.046875 862.894531 602.964844 902.523438 C 597.292969 910.53125 592.828125 919.402344 585.492188 931.769531 C 663.574219 908.554688 736.726562 886.808594 810.601562 864.847656 C 811.683594 860.203125 813.355469 855.785156 813.664062 851.28125 C 818.839844 773.09375 846.964844 703.152344 892.949219 640.792969 C 953.175781 559.117188 1027.367188 492.046875 1115.480469 441.355469 C 1138.375 428.183594 1163.679688 419 1188.40625 409.304688 C 1197.617188 405.691406 1208.308594 404.707031 1218.332031 404.605469 C 1233.226562 404.460938 1238.175781 411.171875 1233.789062 425.777344 C 1231.144531 434.589844 1226.808594 443.445312 1221.203125 450.722656 C 1204.488281 472.421875 1187.976562 494.496094 1169.214844 514.355469 C 1123.46875 562.777344 1076.300781 609.839844 1030.101562 657.828125 C 1006.742188 682.09375 983.957031 706.949219 961.535156 732.085938 C 954.023438 740.5 948.429688 750.625 941.953125 759.964844 C 943.578125 761.523438 945.207031 763.082031 946.824219 764.652344 Z M 685.464844 540.734375 L 683.101562 537.390625 C 672.410156 543.3125 661.628906 549.050781 651.0625 555.171875 C 543.035156 617.847656 442.140625 690.726562 345.628906 769.738281 C 255.851562 843.246094 168.382812 919.367188 90.28125 1005.484375 C 71.941406 1025.71875 55.824219 1048.085938 39.945312 1070.375 C 34.285156 1078.328125 31.246094 1088.6875 29.03125 1098.402344 C 27.175781 1106.5 32.082031 1111.945312 41.085938 1111.527344 C 47.324219 1111.234375 53.710938 1110.941406 59.722656 1109.429688 C 81.726562 1103.902344 104.058594 1099.179688 125.460938 1091.828125 C 266.125 1043.519531 406.554688 994.546875 547.136719 945.992188 C 556.597656 942.730469 562.710938 936.957031 568.15625 928.710938 C 588.433594 898.003906 609.226562 867.636719 630.28125 837.453125 C 649.988281 809.1875 670.566406 781.53125 690.097656 753.152344 C 695.554688 745.222656 698.617188 735.644531 703.011719 726.324219 C 688.277344 718.980469 677.066406 724.945312 666.828125 728.976562 C 625.351562 745.347656 584.328125 762.847656 543.171875 779.996094 C 530.886719 785.113281 518.988281 791.328125 506.386719 795.425781 C 496.304688 798.714844 485.195312 802.488281 475.046875 792.941406 C 473.5 778.300781 483.128906 768.210938 490.6875 757.707031 C 542.980469 684.976562 601.359375 617.589844 667.855469 557.398438 C 673.84375 551.976562 679.597656 546.304688 685.464844 540.746094 Z M 811.097656 888.503906 C 739.730469 909.300781 673.597656 928.257812 607.679688 947.902344 C 565.695312 960.421875 562.394531 964.5 552.03125 1007.167969 C 550.550781 1013.246094 549.363281 1019.425781 548.515625 1025.625 C 542.425781 1070.089844 566.371094 1094.695312 611.203125 1089.578125 C 653.988281 1084.6875 693.824219 1070.089844 729.039062 1045.9375 C 781.882812 1009.699219 802.847656 955.527344 811.097656 888.515625 Z M 811.097656 888.503906 " fill-opacity="1" fill-rule="nonzero"/></g></svg>