<svg xmlns="http://www.w3.org/2000/svg" xmlns:xlink="http://www.w3.org/1999/xlink" width="2040" zoomAndPan="magnify" viewBox="0 0 1530 1529.999932" height="2040" preserveAspectRatio="xMidYMid meet" version="1.0"><defs><clipPath id="8e3ad80b7e"><path d="M 512 792 L 570 792 L 570 868.710938 L 512 868.710938 Z M 512 792 " clip-rule="nonzero"/></clipPath><clipPath id="8cd12055bd"><path d="M 618 792 L 677 792 L 677 868.710938 L 618 868.710938 Z M 618 792 " clip-rule="nonzero"/></clipPath><clipPath id="29f842971d"><path d="M 692 792 L 761 792 L 761 868.710938 L 692 868.710938 Z M 692 792 " clip-rule="nonzero"/></clipPath><clipPath id="c7530eeb75"><path d="M 0 662 L 193 662 L 193 868.710938 L 0 868.710938 Z M 0 662 " clip-rule="nonzero"/></clipPath></defs><path fill="#000000" d="M 307.746094 716.984375 C 323.746094 716.984375 330.769531 711.941406 330.769531 698.484375 C 330.769531 685.027344 323.472656 679.695312 307.746094 679.695312 L 301.5625 679.695312 L 301.5625 716.984375 Z M 352.390625 757.785156 L 329.636719 757.785156 L 313.910156 733.664062 C 312.089844 733.941406 310.117188 734.09375 308.296875 734.09375 L 301.5625 734.09375 L 301.5625 757.785156 L 281.902344 757.785156 L 281.902344 662.464844 L 308.296875 662.464844 C 334.976562 662.464844 350.980469 675.21875 350.980469 698.484375 C 350.980469 713.347656 344.386719 722.742188 332.589844 728.058594 Z M 352.390625 757.785156 " fill-opacity="1" fill-rule="nonzero"/><path fill="#000000" d="M 443.5 710.125 C 443.5 692.328125 431.703125 678.71875 414.292969 678.71875 C 396.882812 678.71875 385.085938 692.3125 385.085938 710.125 C 385.085938 727.9375 396.882812 741.53125 414.292969 741.53125 C 431.703125 741.53125 443.5 727.9375 443.5 710.125 M 364.875 710.125 C 364.875 681.957031 386.785156 661.195312 414.292969 661.195312 C 441.804688 661.195312 463.726562 681.941406 463.726562 710.125 C 463.726562 738.308594 441.816406 759.054688 414.292969 759.054688 C 386.769531 759.054688 364.875 738.308594 364.875 710.125 " fill-opacity="1" fill-rule="nonzero"/><path fill="#000000" d="M 518.179688 740.539062 C 526.183594 740.539062 531.230469 735.207031 531.230469 727.355469 C 531.230469 719.503906 526.027344 714.308594 517.046875 714.308594 L 500.066406 714.308594 L 500.066406 740.523438 L 518.179688 740.523438 Z M 515.226562 697.644531 C 521.546875 697.644531 525.753906 694.144531 525.753906 688.675781 C 525.753906 683.207031 522.25 679.710938 516.207031 679.710938 L 500.066406 679.710938 L 500.066406 697.660156 L 515.226562 697.660156 Z M 480.40625 662.464844 L 517.339844 662.464844 C 535.164062 662.464844 545.140625 673.675781 545.140625 687.132812 C 545.140625 695.964844 539.9375 701.996094 531.660156 704.65625 C 544.710938 707.742188 551.03125 716.433594 551.03125 728.347656 C 551.03125 745.320312 538.957031 757.785156 519.023438 757.785156 L 480.40625 757.785156 Z M 480.40625 662.464844 " fill-opacity="1" fill-rule="nonzero"/><path fill="#000000" d="M 603.800781 740.539062 C 611.800781 740.539062 616.851562 735.207031 616.851562 727.355469 C 616.851562 719.503906 611.648438 714.308594 602.667969 714.308594 L 585.683594 714.308594 L 585.683594 740.523438 L 603.800781 740.523438 Z M 600.847656 697.644531 C 607.164062 697.644531 611.371094 694.144531 611.371094 688.675781 C 611.371094 683.207031 607.867188 679.710938 601.824219 679.710938 L 585.683594 679.710938 L 585.683594 697.660156 L 600.847656 697.660156 Z M 566.039062 662.464844 L 602.972656 662.464844 C 620.796875 662.464844 630.773438 673.675781 630.773438 687.132812 C 630.773438 695.964844 625.570312 701.996094 617.292969 704.65625 C 630.34375 707.742188 636.664062 716.433594 636.664062 728.347656 C 636.664062 745.320312 624.59375 757.785156 604.65625 757.785156 L 566.039062 757.785156 Z M 566.039062 662.464844 " fill-opacity="1" fill-rule="nonzero"/><path fill="#000000" d="M 652.070312 662.464844 L 671.730469 662.464844 L 671.730469 757.785156 L 652.070312 757.785156 Z M 652.070312 662.464844 " fill-opacity="1" fill-rule="nonzero"/><path fill="#000000" d="M 720.308594 713.484375 C 715.535156 708.992188 708.941406 700.453125 708.941406 700.453125 C 708.941406 700.453125 710.332031 710.964844 710.332031 717.839844 L 710.332031 757.800781 L 691.941406 757.800781 L 691.941406 661.609375 L 693.902344 661.609375 L 742.066406 706.75 C 746.703125 711.085938 753.296875 719.777344 753.296875 719.777344 C 753.296875 719.777344 752.027344 708.980469 752.027344 702.394531 L 752.027344 662.464844 L 770.417969 662.464844 L 770.417969 758.625 L 768.457031 758.625 L 720.292969 713.484375 Z M 720.308594 713.484375 " fill-opacity="1" fill-rule="nonzero"/><path fill="#000000" d="M 782.058594 738.996094 L 798.0625 729.753906 C 802.269531 736.613281 807.761719 741.667969 817.449219 741.667969 C 825.589844 741.667969 830.789062 737.605469 830.789062 732 C 830.789062 725.277344 825.449219 722.894531 816.46875 718.96875 L 811.558594 716.859375 C 797.375 710.84375 787.964844 703.265625 787.964844 687.285156 C 787.964844 672.578125 799.195312 661.347656 816.746094 661.347656 C 829.246094 661.347656 838.226562 665.6875 844.683594 677.050781 L 829.382812 686.859375 C 826.015625 680.824219 822.359375 678.441406 816.746094 678.441406 C 811.128906 678.441406 807.335938 682.09375 807.335938 686.859375 C 807.335938 692.753906 810.976562 695.140625 819.40625 698.773438 L 824.316406 700.882812 C 841.027344 708.03125 850.433594 715.316406 850.433594 731.722656 C 850.433594 749.382812 836.527344 759.054688 817.863281 759.054688 C 799.195312 759.054688 787.8125 750.359375 782.058594 739.011719 " fill-opacity="1" fill-rule="nonzero"/><path fill="#000000" d="M 896.75 661.472656 L 898.292969 661.472656 L 945.324219 713.058594 L 991.667969 661.472656 L 993.351562 661.472656 L 993.351562 757.785156 L 974.394531 757.785156 L 974.394531 722.039062 C 974.394531 715.59375 975.097656 705.359375 975.097656 705.359375 C 975.097656 705.359375 969.347656 713.773438 964.847656 718.816406 L 945.890625 739.988281 L 944.054688 739.988281 L 925.097656 718.816406 C 920.601562 713.773438 914.847656 705.359375 914.847656 705.359375 C 914.847656 705.359375 915.550781 715.59375 915.550781 722.039062 L 915.550781 757.785156 L 896.734375 757.785156 L 896.734375 661.472656 Z M 896.75 661.472656 " fill-opacity="1" fill-rule="nonzero"/><path fill="#000000" d="M 1061.421875 730.59375 L 1054.539062 714.050781 C 1051.722656 707.328125 1048.785156 696.957031 1048.785156 696.957031 C 1048.785156 696.957031 1045.96875 707.328125 1043.167969 714.050781 L 1036.285156 730.59375 Z M 1048.21875 661.625 L 1049.902344 661.625 L 1093.566406 757.800781 L 1072.925781 757.800781 L 1068.445312 747 L 1029.691406 747 L 1025.191406 757.800781 L 1006.234375 757.800781 Z M 1048.21875 661.625 " fill-opacity="1" fill-rule="nonzero"/><path fill="#000000" d="M 1134.832031 740.539062 C 1156.039062 740.539062 1165.722656 727.921875 1165.722656 710.109375 C 1165.722656 692.296875 1156.039062 679.695312 1134.832031 679.695312 L 1126.125 679.695312 L 1126.125 740.539062 Z M 1106.480469 662.464844 L 1135.824219 662.464844 C 1165.171875 662.464844 1186.085938 681.957031 1186.085938 710.125 C 1186.085938 738.292969 1165.308594 757.785156 1135.824219 757.785156 L 1106.480469 757.785156 Z M 1106.480469 662.464844 " fill-opacity="1" fill-rule="nonzero"/><path fill="#000000" d="M 1242.375 730.59375 L 1235.492188 714.050781 C 1232.675781 707.328125 1229.738281 696.957031 1229.738281 696.957031 C 1229.738281 696.957031 1226.921875 707.328125 1224.121094 714.050781 L 1217.238281 730.59375 Z M 1229.171875 661.625 L 1230.855469 661.625 L 1274.519531 757.800781 L 1253.878906 757.800781 L 1249.382812 747 L 1210.628906 747 L 1206.128906 757.800781 L 1187.171875 757.800781 Z M 1229.171875 661.625 " fill-opacity="1" fill-rule="nonzero"/><path fill="#000000" d="M 1315.785156 713.484375 C 1311.011719 708.992188 1304.402344 700.453125 1304.402344 700.453125 C 1304.402344 700.453125 1305.808594 710.964844 1305.808594 717.839844 L 1305.808594 757.800781 L 1287.417969 757.800781 L 1287.417969 661.609375 L 1289.375 661.609375 L 1337.542969 706.75 C 1342.175781 711.085938 1348.769531 719.777344 1348.769531 719.777344 C 1348.769531 719.777344 1347.5 708.980469 1347.5 702.394531 L 1347.5 662.464844 L 1365.890625 662.464844 L 1365.890625 758.625 L 1363.917969 758.625 L 1315.753906 713.484375 Z M 1315.785156 713.484375 " fill-opacity="1" fill-rule="nonzero"/><path fill="#000000" d="M 1385.828125 662.464844 L 1449 662.464844 L 1449 679.695312 L 1405.472656 679.695312 L 1405.472656 709.988281 L 1443.816406 709.988281 L 1443.816406 726.804688 L 1405.472656 726.804688 L 1405.472656 740.539062 L 1450.976562 740.539062 L 1450.976562 757.785156 L 1385.828125 757.785156 Z M 1385.828125 662.464844 " fill-opacity="1" fill-rule="nonzero"/><path fill="#000000" d="M 1461.625 738.996094 L 1477.628906 729.753906 C 1481.835938 736.613281 1487.3125 741.667969 1497.011719 741.667969 C 1505.152344 741.667969 1510.355469 737.605469 1510.355469 732 C 1510.355469 725.277344 1505.015625 722.894531 1496.035156 718.96875 L 1491.121094 716.859375 C 1476.9375 710.84375 1467.53125 703.265625 1467.53125 687.285156 C 1467.53125 672.578125 1478.761719 661.347656 1496.308594 661.347656 C 1508.808594 661.347656 1517.789062 665.6875 1524.246094 677.050781 L 1508.945312 686.859375 C 1505.582031 680.824219 1501.925781 678.441406 1496.308594 678.441406 C 1490.695312 678.441406 1486.898438 682.09375 1486.898438 686.859375 C 1486.898438 692.753906 1490.542969 695.140625 1498.972656 698.773438 L 1503.882812 700.882812 C 1520.589844 708.03125 1530 715.316406 1530 731.722656 C 1530 749.382812 1516.09375 759.054688 1497.425781 759.054688 C 1478.761719 759.054688 1467.378906 750.359375 1461.625 739.011719 " fill-opacity="1" fill-rule="nonzero"/><path fill="#000000" d="M 304.621094 800.511719 L 281.917969 800.511719 L 281.917969 793.578125 L 335.160156 793.578125 L 335.160156 800.511719 L 312.441406 800.511719 L 312.441406 867.359375 L 304.621094 867.359375 Z M 304.621094 800.511719 " fill-opacity="1" fill-rule="nonzero"/><path fill="#000000" d="M 365.042969 840.992188 C 381.78125 840.992188 387.976562 832.421875 387.976562 820.8125 C 387.976562 809.203125 381.671875 800.527344 365.042969 800.527344 L 356.671875 800.527344 L 356.671875 840.992188 Z M 396.773438 867.359375 L 387.535156 867.359375 L 373.304688 847.179688 C 370.8125 847.605469 368.085938 847.835938 365.488281 847.835938 L 356.6875 847.835938 L 356.6875 867.359375 L 348.871094 867.359375 L 348.871094 793.578125 L 365.5 793.578125 C 385.714844 793.578125 396.148438 804.867188 396.148438 820.8125 C 396.148438 831.875 390.929688 840.566406 380.710938 844.691406 L 396.789062 867.359375 Z M 396.773438 867.359375 " fill-opacity="1" fill-rule="nonzero"/><path fill="#000000" d="M 453.613281 848.265625 L 440.578125 815.496094 C 439.171875 812.03125 437.75 806.714844 437.75 806.714844 C 437.75 806.714844 436.234375 812.03125 434.8125 815.496094 L 421.773438 848.265625 Z M 437.089844 792.8125 L 438.390625 792.8125 L 469.695312 867.359375 L 461.433594 867.359375 L 456.429688 854.984375 L 419.050781 854.984375 L 414.15625 867.359375 L 406.445312 867.359375 Z M 437.089844 792.8125 " fill-opacity="1" fill-rule="nonzero"/><path fill="#000000" d="M 484.152344 793.578125 L 492.09375 793.578125 L 492.09375 867.359375 L 484.152344 867.359375 Z M 484.152344 793.578125 " fill-opacity="1" fill-rule="nonzero"/><g clip-path="url(#8e3ad80b7e)"><path fill="#000000" d="M 524.46875 816.03125 C 522.402344 813.542969 519.359375 809.203125 519.359375 809.203125 C 519.359375 809.203125 520.015625 814.414062 520.015625 817.558594 L 520.015625 867.359375 L 512.625 867.359375 L 512.625 792.8125 L 513.941406 792.8125 L 558.066406 844.886719 C 560.132812 847.378906 563.175781 851.714844 563.175781 851.714844 C 563.175781 851.714844 562.625 846.507812 562.625 843.359375 L 562.625 793.5625 L 569.910156 793.5625 L 569.910156 868.105469 L 568.609375 868.105469 L 524.484375 816.03125 Z M 524.46875 816.03125 " fill-opacity="1" fill-rule="nonzero"/></g><path fill="#000000" d="M 590.441406 793.578125 L 598.382812 793.578125 L 598.382812 867.359375 L 590.441406 867.359375 Z M 590.441406 793.578125 " fill-opacity="1" fill-rule="nonzero"/><g clip-path="url(#8cd12055bd)"><path fill="#000000" d="M 630.757812 816.03125 C 628.691406 813.542969 625.648438 809.203125 625.648438 809.203125 C 625.648438 809.203125 626.304688 814.414062 626.304688 817.558594 L 626.304688 867.359375 L 618.914062 867.359375 L 618.914062 792.8125 L 620.214844 792.8125 L 664.339844 844.886719 C 666.40625 847.378906 669.453125 851.714844 669.453125 851.714844 C 669.453125 851.714844 668.902344 846.507812 668.902344 843.359375 L 668.902344 793.5625 L 676.183594 793.5625 L 676.183594 868.105469 L 674.882812 868.105469 Z M 630.757812 816.03125 " fill-opacity="1" fill-rule="nonzero"/></g><g clip-path="url(#29f842971d)"><path fill="#000000" d="M 692.15625 830.46875 C 692.15625 808.226562 708.679688 792.707031 730.191406 792.707031 C 740.839844 792.707031 749.867188 795.746094 755.941406 802.253906 L 750.617188 807.570312 C 745.828125 802.589844 739.3125 799.761719 730.191406 799.761719 C 712.8125 799.761719 700.3125 812.902344 700.3125 830.46875 C 700.3125 848.035156 712.917969 861.171875 730.851562 861.171875 C 740.964844 861.171875 748.125 858.132812 752.699219 854.449219 L 752.699219 839.265625 L 730.742188 839.265625 L 730.742188 832.316406 L 760.089844 832.316406 L 760.089844 858.023438 C 754.65625 863.339844 744.773438 868.230469 730.851562 868.230469 C 708.789062 868.230469 692.15625 852.710938 692.15625 830.46875 " fill-opacity="1" fill-rule="nonzero"/></g><path fill="#97cfd2" d="M 148.761719 762.152344 C 148.761719 787.941406 127.816406 808.851562 101.988281 808.851562 C 76.164062 808.851562 55.21875 787.941406 55.21875 762.152344 C 55.21875 736.367188 76.164062 715.457031 101.988281 715.457031 C 127.816406 715.457031 148.761719 736.367188 148.761719 762.152344 " fill-opacity="1" fill-rule="nonzero"/><path fill="#63b8b0" d="M 151.285156 674.636719 C 175.109375 689.164062 191.003906 715.363281 191.003906 745.273438 C 191.003906 790.949219 153.917969 827.976562 108.171875 827.976562 C 78.214844 827.976562 51.972656 812.089844 37.421875 788.320312 C 50.429688 820.15625 81.734375 842.613281 118.300781 842.613281 C 166.523438 842.613281 205.632812 803.566406 205.632812 755.417969 C 205.632812 718.90625 183.140625 687.652344 151.253906 674.667969 " fill-opacity="1" fill-rule="nonzero"/><g clip-path="url(#c7530eeb75)"><path fill="#42947f" d="M 119.460938 853.839844 C 63.753906 853.839844 18.605469 808.761719 18.605469 753.140625 C 18.589844 712.996094 42.136719 678.335938 76.195312 662.15625 C 32.191406 674.792969 0 715.273438 0 763.269531 C 0 821.378906 47.171875 868.472656 105.371094 868.472656 C 141.371094 868.472656 173.148438 850.449219 192.152344 822.953125 C 173.808594 842 148.027344 853.855469 119.460938 853.855469 " fill-opacity="1" fill-rule="nonzero"/></g></svg>