<svg xmlns="http://www.w3.org/2000/svg" xmlns:xlink="http://www.w3.org/1999/xlink" width="600" zoomAndPan="magnify" viewBox="0 0 450 449.999984" height="600" preserveAspectRatio="xMidYMid meet" version="1.0"><defs><clipPath id="ef9574a531"><path d="M 0 13.152344 L 450 13.152344 L 450 436.902344 L 0 436.902344 Z M 0 13.152344 " clip-rule="nonzero"/></clipPath></defs><g clip-path="url(#ef9574a531)"><path fill="#000000" d="M 150.761719 382.75 C 151.308594 373.765625 151.664062 370.835938 151.777344 357.230469 C 152.003906 331.585938 148.808594 316.644531 146.460938 308.183594 C 141.292969 289.492188 132.652344 278.789062 122.378906 273.226562 C 121.496094 276.269531 120.574219 279.410156 119.617188 282.644531 C 108.15625 321.667969 91.964844 368.566406 71.636719 402.824219 C 71.617188 402.859375 68.539062 407.890625 64.441406 413.613281 C 54.878906 426.988281 48.175781 432.5625 46.144531 435.171875 C 45.921875 435.460938 45.9375 435.472656 45.65625 435.722656 C 45.488281 435.894531 44.417969 436.90625 42.707031 436.726562 C 42.464844 436.699219 41 436.546875 40.019531 435.128906 C 39.871094 434.917969 39.027344 433.6875 39.515625 431.972656 C 40.058594 430.023438 42.765625 423.332031 43.628906 421.074219 C 44.042969 419.972656 46.109375 414.429688 46.316406 413.847656 C 56.496094 386.304688 79.378906 322.230469 83.117188 270.144531 C 69.121094 273.242188 57.246094 278.90625 52.515625 280.179688 C 52.195312 280.261719 52.195312 280.269531 51.875 280.300781 C 51.648438 280.320312 50.390625 280.433594 49.320312 279.421875 C 49.171875 279.273438 48.25 278.410156 48.285156 276.933594 C 48.304688 276.714844 48.34375 275.453125 49.46875 274.511719 C 49.621094 274.394531 49.769531 274.292969 49.921875 274.195312 C 50.671875 273.738281 64.78125 265.734375 83.621094 254.34375 C 83.566406 248.246094 83.132812 242.410156 82.308594 236.929688 C 79.941406 221.273438 74.8125 212.421875 70.191406 207.140625 C 55.539062 190.402344 47.59375 186.65625 34.140625 184.539062 C 26.738281 183.375 17.101562 182.675781 5.042969 181.113281 C 4.890625 181.09375 4.742188 181.082031 4.589844 181.054688 C 4.347656 181.007812 4.085938 180.960938 3.820312 180.882812 C 1.792969 180.25 1.058594 178.605469 0.929688 178.320312 C 0.046875 176.390625 0.777344 174.734375 0.910156 174.453125 C 1.398438 173.335938 2.226562 172.714844 2.375 172.597656 C 2.449219 172.542969 2.714844 172.351562 3.390625 172.003906 C 16.972656 164.964844 47.234375 156.332031 109.113281 109.257812 C 142.082031 84.167969 163.441406 65.585938 167.78125 61.820312 C 196.429688 36.953125 210.125 21.898438 213.242188 18.578125 C 216.117188 15.527344 216.605469 14.871094 217.546875 14.261719 C 218.242188 13.792969 218.878906 13.566406 218.992188 13.523438 C 219.140625 13.46875 219.3125 13.4375 219.460938 13.40625 C 219.726562 13.351562 219.96875 13.292969 220.230469 13.261719 C 221.097656 13.15625 221.828125 13.269531 221.960938 13.292969 C 222.09375 13.316406 222.824219 13.429688 223.59375 13.796875 C 224.007812 13.988281 226.394531 15.105469 227.03125 18.191406 C 227.089844 18.441406 227.125 18.691406 227.144531 18.945312 C 227.164062 19.199219 227.144531 19.449219 227.144531 19.703125 C 227.144531 19.855469 227.144531 20.007812 227.125 20.160156 C 227.089844 20.34375 226.957031 21.308594 226.414062 22.347656 C 225.625 23.824219 223.3125 26.246094 220.363281 32.640625 C 211.628906 51.570312 207.722656 83.457031 202.59375 127.851562 C 200.507812 145.953125 198.347656 165.269531 195.679688 186.933594 C 207.34375 180.863281 221.078125 174.003906 237.835938 165.972656 C 238.230469 165.789062 238.605469 165.59375 239 165.421875 C 239.167969 165.34375 239.335938 165.273438 239.507812 165.222656 C 240.933594 164.824219 242.003906 165.5 242.191406 165.617188 C 243.433594 166.410156 243.640625 167.660156 243.65625 167.875 C 243.695312 168.046875 243.84375 169.015625 243.28125 170.023438 C 242.945312 170.601562 241.648438 172.023438 241.496094 172.1875 C 237.441406 176.582031 234.265625 177.792969 226.429688 194.238281 C 225.828125 195.511719 221.773438 203.871094 214.539062 222.28125 C 205.183594 246.097656 199.832031 263.480469 196.75 276.03125 C 200.148438 267.796875 204.300781 257.679688 209.054688 246.148438 C 225.339844 206.492188 227.839844 200.289062 234.320312 185.960938 C 234.527344 185.503906 234.527344 185.503906 234.734375 185.054688 C 234.886719 184.746094 235.035156 184.429688 235.183594 184.128906 C 235.296875 183.914062 235.390625 183.703125 235.542969 183.507812 C 235.691406 183.28125 236.613281 181.941406 238.511719 181.753906 C 238.792969 181.726562 240.40625 181.566406 241.761719 182.886719 C 242.832031 183.917969 242.960938 185.171875 243 185.394531 C 243.019531 185.628906 243.019531 185.867188 243.019531 186.105469 C 243 186.378906 241.027344 208.765625 239.996094 234.402344 C 239.996094 234.472656 239.65625 244.734375 239.636719 255.460938 C 239.617188 261.960938 239.65625 281.453125 241.777344 289.394531 C 242.078125 288.871094 242.398438 288.242188 242.757812 287.496094 C 243.902344 285.078125 244.410156 283.582031 245.027344 281.554688 C 248.5625 269.878906 254.007812 242.609375 255.023438 231.503906 C 256.902344 210.804688 253.03125 206.652344 250.476562 204.535156 C 248.65625 203.019531 246.34375 201.804688 244.636719 199.253906 C 244.429688 198.957031 244.332031 198.75 244.316406 198.703125 C 244.238281 198.511719 243.734375 197.414062 244.238281 196.09375 C 244.296875 195.9375 244.636719 195.058594 245.574219 194.457031 C 245.910156 194.234375 245.929688 194.265625 250.738281 192.148438 C 276.476562 180.8125 280.535156 178.085938 283.820312 178.308594 C 284.609375 178.363281 286.695312 178.695312 287.746094 181.21875 C 288.722656 183.546875 288.613281 186.492188 285.417969 196.46875 C 282.84375 204.484375 278.75 215.535156 275.59375 225.941406 C 276.796875 222.410156 278.167969 218.507812 279.78125 214.195312 C 280.308594 212.800781 284.273438 201.90625 290.640625 186.683594 C 290.753906 186.4375 290.847656 186.183594 290.960938 185.941406 C 291.035156 185.765625 291.128906 185.589844 291.222656 185.425781 C 292.070312 184.117188 293.363281 183.882812 293.589844 183.839844 C 295.113281 183.558594 296.164062 184.351562 296.351562 184.484375 C 297.589844 185.414062 297.742188 186.726562 297.761719 186.953125 C 297.777344 187.148438 297.777344 187.34375 297.777344 187.539062 C 297.761719 187.796875 297.742188 187.796875 297.609375 190.800781 C 297.589844 191.140625 297.515625 192.785156 297.402344 195.339844 C 298.378906 194.246094 299.582031 192.933594 301.105469 191.34375 C 307.472656 184.683594 315.550781 178.171875 322.746094 180.453125 C 323.347656 180.644531 323.910156 180.886719 324.4375 181.171875 C 328.117188 178.679688 332.945312 175.445312 336.648438 173.082031 C 349.234375 165.054688 353.328125 163.929688 356.109375 164.640625 C 358.683594 165.304688 360.035156 167.707031 359.660156 170.160156 C 359.265625 172.605469 355.28125 188.109375 351.9375 202.691406 C 353.140625 199.609375 354.230469 196.800781 355.132812 194.542969 C 368.542969 160.992188 379.007812 147.160156 385.566406 144.980469 C 389.097656 143.8125 391.933594 145.847656 392.457031 148.609375 C 392.871094 150.796875 392.046875 158.816406 391.707031 170.546875 C 391.667969 171.742188 390.75 184.046875 391.839844 193.296875 C 392.722656 200.589844 394.375 202.351562 394.789062 202.699219 C 395.425781 202.742188 397.925781 202.589844 404.558594 199.164062 C 420.804688 190.792969 444.664062 171.855469 444.683594 171.847656 C 445.058594 171.65625 445.414062 171.382812 445.808594 171.265625 C 446.222656 171.152344 446.636719 171.121094 447.050781 171.167969 C 447.464844 171.214844 447.875 171.339844 448.234375 171.539062 C 448.234375 171.539062 449.230469 172.363281 449.230469 172.367188 C 449.417969 172.746094 449.679688 173.09375 449.792969 173.503906 C 449.925781 173.898438 449.941406 174.328125 449.90625 174.738281 C 449.847656 175.148438 449.734375 175.558594 449.53125 175.921875 C 449.324219 176.292969 449.003906 176.59375 448.703125 176.902344 C 448.648438 176.964844 446.355469 178.792969 446.148438 178.957031 C 428.960938 192.695312 417.988281 199.796875 417.707031 199.988281 C 402.226562 210.222656 396.101562 211.453125 392.363281 210.386719 C 391.105469 210.023438 388.476562 208.863281 386.371094 204.800781 C 383.105469 198.539062 381.9375 187.144531 382.125 170.5 C 382.144531 170.007812 382.3125 166.226562 382.710938 160.28125 C 382.710938 160.09375 382.726562 159.910156 382.746094 159.726562 C 378.105469 165.921875 370.800781 178.226562 361.160156 202.246094 C 357.816406 210.574219 351.882812 225.292969 348.558594 230.03125 C 347.9375 230.9375 346.507812 232.859375 344.125 232.941406 C 342.261719 233.003906 339.898438 231.8125 339.484375 228.539062 C 339.109375 225.472656 340.140625 217.949219 346.492188 192.390625 C 348.40625 184.691406 350.285156 177.445312 351.375 173.023438 C 350.847656 173.269531 350.246094 173.566406 349.550781 173.925781 C 343.109375 177.253906 333.433594 183.71875 329.300781 186.519531 C 330.351562 188.617188 330.859375 190.703125 331.125 191.898438 C 334.617188 207.769531 328.269531 237.796875 318.707031 252.386719 C 316.679688 255.46875 311.792969 262.167969 304.878906 261.691406 C 300.257812 261.371094 297.066406 257.957031 295.394531 255.800781 C 293.195312 252.980469 290.039062 246.054688 289.8125 218.992188 C 289.777344 214.800781 289.8125 210.679688 289.890625 206.917969 C 288.800781 209.613281 287.671875 212.492188 286.527344 215.488281 C 286.507812 215.542969 284.96875 219.605469 283.238281 224.566406 C 275.800781 245.734375 274.824219 254.109375 273.902344 256.722656 C 273.828125 256.933594 273.226562 258.910156 271.199219 259.453125 C 270.316406 259.691406 268.71875 259.714844 267.347656 258.148438 C 267.289062 258.074219 266.425781 257.050781 265.789062 255.730469 C 262.238281 248.375 265.523438 234.28125 272.15625 214.527344 C 276.007812 203.007812 280.363281 191.320312 281.339844 185.816406 C 280.289062 186.242188 279.011719 186.808594 277.621094 187.4375 C 271.234375 190.308594 266.519531 192.570312 253.484375 198.3125 C 253.671875 198.457031 253.878906 198.609375 254.082031 198.773438 C 259.644531 203.054688 263.777344 209.765625 261.75 232.117188 C 260.695312 243.699219 255.210938 271.207031 251.546875 283.351562 C 250.816406 285.773438 250.175781 287.597656 248.878906 290.382812 C 246.757812 294.871094 244.652344 297.496094 241.835938 297.816406 C 240.953125 297.917969 238.453125 297.9375 236.652344 294.796875 C 234.941406 291.800781 232.292969 283.753906 232.96875 244.90625 C 233.082031 238.855469 233.175781 236.125 233.230469 233.496094 C 233.402344 224.152344 233.683594 214.867188 233.964844 207.019531 C 228.554688 219.589844 219.574219 241.191406 195.773438 297.828125 C 191.996094 306.792969 191.996094 306.792969 191.976562 306.851562 C 191.714844 307.457031 191.378906 307.839844 191.300781 307.914062 C 191.132812 308.09375 190.175781 309.160156 188.484375 309.109375 C 188.238281 309.101562 186.792969 309.058594 185.742188 307.746094 C 185.574219 307.550781 184.6875 306.4375 184.992188 304.742188 C 185.214844 303.546875 185.046875 298.410156 186.773438 288.398438 C 188.558594 278.113281 193.726562 254.25 212.53125 209.023438 C 219.425781 192.480469 224.007812 183.617188 227.558594 178.207031 C 216.738281 183.445312 205.730469 188.910156 194.722656 194.667969 C 193.78125 202.164062 192.785156 209.945312 191.714844 218.050781 C 191.714844 218.0625 189.949219 230.917969 187.488281 247.5 C 180.332031 295.546875 172.796875 337.402344 166.109375 371.671875 C 223.386719 330.988281 275.726562 301.402344 358.25 270.863281 C 377.335938 263.800781 393.773438 258.269531 401.871094 255.5625 C 402.132812 255.472656 403.710938 254.945312 405.496094 255.847656 C 406.773438 256.5 407.375 257.539062 407.488281 257.730469 C 407.488281 257.730469 407.863281 258.613281 407.863281 258.613281 C 407.9375 258.921875 408.03125 259.230469 408.070312 259.550781 C 408.105469 259.835938 408.296875 261.464844 407.09375 263.011719 C 406.511719 263.765625 405.835938 264.152344 405.703125 264.226562 C 405.421875 264.386719 405.121094 264.503906 404.820312 264.617188 C 404.386719 264.785156 382.878906 271.5 357.554688 280.636719 C 278.5625 309.121094 227.445312 337.402344 171.597656 376.4375 C 169.117188 378.164062 166.636719 379.914062 164.15625 381.683594 C 161.207031 396.515625 158.445312 409.765625 156.003906 421.296875 C 155.910156 421.789062 155.816406 422.28125 155.703125 422.773438 C 155.664062 422.960938 155.609375 423.152344 155.535156 423.335938 C 155.441406 423.546875 154.953125 424.789062 153.503906 425.347656 C 153.300781 425.429688 152.058594 425.90625 150.667969 425.210938 C 150.460938 425.109375 149.277344 424.519531 148.847656 423.035156 C 148.828125 422.945312 148.695312 422.476562 148.714844 421.882812 C 149.222656 411.890625 149.785156 401.902344 150.253906 391.910156 C 150.273438 391.832031 150.273438 391.757812 150.273438 391.683594 C 133.761719 403.726562 118.582031 415.28125 109.339844 422.324219 C 108.609375 422.890625 108.609375 422.882812 105.753906 425.152344 C 103.949219 426.59375 103.96875 426.601562 102.183594 428.085938 C 99.796875 430.085938 99.796875 430.085938 97.449219 432.144531 C 97.167969 432.394531 95.121094 434.1875 93.898438 435.296875 C 93.75 435.445312 93.203125 435.667969 93.128906 435.691406 C 92.882812 435.789062 91.511719 436.347656 89.878906 435.832031 C 89.089844 435.582031 88.582031 435.167969 88.488281 435.085938 C 88.339844 434.960938 87.53125 434.285156 87.191406 432.980469 C 87.117188 432.734375 86.722656 431.289062 87.605469 429.808594 C 87.738281 429.570312 87.90625 429.34375 88.09375 429.136719 C 88.46875 428.714844 88.488281 428.726562 88.957031 428.410156 C 89.464844 428.074219 93.765625 425.242188 95.363281 424.136719 C 97.957031 422.328125 99.535156 421.207031 100.359375 420.625 C 100.53125 420.503906 102.503906 419.050781 104.0625 417.90625 C 105.019531 417.199219 105 417.164062 115.953125 408.820312 C 128.011719 399.625 139.527344 390.964844 150.761719 382.75 Z M 83.546875 261.921875 C 82.402344 262.617188 81.273438 263.304688 80.148438 263.972656 C 81.257812 263.707031 82.382812 263.453125 83.511719 263.222656 C 83.527344 262.785156 83.546875 262.351562 83.546875 261.921875 Z M 91.4375 268.6875 C 90.347656 284.210938 87.417969 302.871094 81.96875 325.363281 C 73.515625 360.199219 61.570312 393.605469 53.902344 414.078125 C 57.023438 409.75 60.328125 404.660156 63.859375 398.5 C 64.59375 397.230469 70.210938 388.308594 77.816406 372.402344 C 96.453125 333.351562 109.507812 288.933594 114.300781 272.976562 C 114.582031 272.042969 114.863281 271.109375 115.144531 270.191406 C 109.640625 268.488281 103.835938 267.929688 97.9375 268.148438 C 95.757812 268.226562 93.578125 268.414062 91.4375 268.6875 Z M 297.046875 206.652344 C 296.765625 220.140625 296.933594 238.714844 299.527344 247.859375 C 300.335938 250.726562 301.046875 251.453125 301.273438 251.710938 C 303.921875 254.984375 305.667969 254.613281 306.234375 254.488281 C 309.988281 253.65625 315.53125 246.175781 319.910156 232.289062 C 324.867188 216.671875 326.464844 198.84375 323.347656 190.742188 C 323.328125 190.695312 323.308594 190.648438 323.289062 190.601562 C 312.113281 198.242188 302.8125 204.734375 298.980469 206.203125 C 298.699219 206.308594 297.96875 206.605469 297.046875 206.652344 Z M 124.351562 266.488281 C 126.753906 267.671875 129.082031 269.089844 131.339844 270.773438 C 144.132812 280.277344 150.480469 295.296875 153.898438 308.296875 C 155.046875 312.6875 155.871094 317.363281 156.003906 318.15625 C 158.464844 332.148438 158.898438 346.699219 158.671875 358.917969 C 158.578125 363.941406 158.425781 368.164062 158.238281 371.835938 C 164.136719 339.351562 170.996094 298.105469 177.214844 250.390625 C 179.597656 232.105469 181.027344 219.609375 181.496094 215.757812 C 182.117188 210.636719 182.71875 205.640625 183.300781 200.761719 C 177.382812 203.976562 171.484375 207.285156 165.640625 210.691406 C 153.898438 217.535156 144.226562 223.675781 135.113281 229.503906 C 132.070312 240.035156 128.539062 252.195312 124.351562 266.488281 Z M 184.183594 193.023438 C 188.089844 158.941406 190.757812 130.898438 193.3125 107.867188 C 196.207031 82.011719 198.949219 61.878906 202.949219 46.171875 C 187.019531 61.089844 161.113281 83.730469 122.414062 112.820312 C 105.152344 125.789062 74.378906 148.484375 40.226562 165.636719 C 33.371094 169.066406 27.621094 171.675781 22.757812 173.792969 C 30.121094 174.652344 35.757812 175.328125 41.148438 176.585938 C 54.128906 179.613281 63.242188 185.664062 76.804688 201.414062 C 84.261719 210.085938 90.96875 224.339844 91.832031 249.347656 C 92.808594 248.757812 93.765625 248.164062 94.742188 247.5625 C 107.59375 239.648438 118.207031 232.84375 128.203125 226.464844 C 144.75 170.640625 147.023438 161.691406 162.429688 117.925781 C 162.636719 117.328125 163.707031 114.339844 165.097656 111.789062 C 166.28125 109.609375 168.121094 106.828125 171.03125 106.773438 C 171.726562 106.757812 174.058594 106.871094 175.503906 109.816406 C 176.253906 111.386719 176.613281 113.402344 176.820312 114.867188 C 176.855469 115.074219 177.023438 116.261719 176.160156 117.386719 C 175.917969 117.734375 175.578125 118.039062 175.203125 118.261719 C 175.203125 118.265625 173.925781 118.710938 173.925781 118.710938 C 173.476562 118.683594 173.023438 118.742188 172.59375 118.628906 C 172.160156 118.519531 171.765625 118.320312 171.425781 118.058594 C 171.070312 117.796875 170.769531 117.464844 170.542969 117.089844 C 170.449219 116.925781 170.375 116.792969 170.320312 116.679688 C 169.792969 117.824219 169.304688 119.078125 168.910156 120.199219 C 154.914062 160.566406 152.171875 170.558594 137.761719 220.378906 C 141.613281 217.941406 145.445312 215.535156 149.371094 213.117188 C 159.328125 206.972656 170.148438 200.601562 184.183594 193.023438 Z M 125.457031 235.710938 C 116.496094 241.460938 106.410156 247.898438 94.273438 255.371094 C 93.484375 255.859375 92.695312 256.339844 91.925781 256.820312 C 91.90625 258.460938 91.871094 260.144531 91.8125 261.867188 C 100.097656 260.902344 108.796875 261.121094 117.117188 263.632812 C 120.234375 253.242188 122.980469 244.003906 125.457031 235.710938 Z M 125.457031 235.710938 " fill-opacity="1" fill-rule="evenodd"/></g></svg>